{
  "accessors": [
    {
      "bufferView": 2,
      "componentType": 5126,
      "count": 34255,
      "max": [
        1.2542860507965088,
        5.8538331985473633,
        0.57291501760482788
      ],
      "min": [
        0.81149399280548096,
        5.4777069091796875,
        -0.64118999242782593
      ],
      "type": "VEC3"
    },
    {
      "bufferView": 2,
      "byteOffset": 411060,
      "componentType": 5126,
      "count": 34255,
      "max": [
        0.9999198317527771,
        0.99999302625656128,
        0.99998706579208374
      ],
      "min": [
        -0.99999439716339111,
        -0.99999773502349854,
        -0.99997794628143311
      ],
      "type": "VEC3"
    },
    {
      "bufferView": 3,
      "componentType": 5126,
      "count": 34255,
      "max": [
        0.85098040103912354,
        0.87058824300765991,
        0.88627451658248901,
        1
      ],
      "min": [
        0.18823529779911041,
        0.18039216101169586,
        0.10196078568696976,
        1
      ],
      "type": "VEC4"
    },
    {
      "bufferView": 1,
      "componentType": 5126,
      "count": 34255,
      "max": [
        0.96416300535202026,
        1
      ],
      "min": [
        0,
        0
      ],
      "type": "VEC2"
    },
    {
      "bufferView": 0,
      "componentType": 5125,
      "count": 193587,
      "max": [
        34254
      ],
      "min": [
        0
      ],
      "type": "SCALAR"
    },
    {
      "bufferView": 2,
      "byteOffset": 822120,
      "componentType": 5126,
      "count": 37452,
      "max": [
        1.2894599437713623,
        5.8609919548034668,
        0.58461600542068481
      ],
      "min": [
        0.84932702779769897,
        5.5257368087768555,
        -0.64118999242782593
      ],
      "type": "VEC3"
    },
    {
      "bufferView": 2,
      "byteOffset": 1271544,
      "componentType": 5126,
      "count": 37452,
      "max": [
        0.99999916553497314,
        0.99999648332595825,
        0.99872332811355591
      ],
      "min": [
        -0.99997639656066895,
        -0.99999743700027466,
        -0.99968552589416504
      ],
      "type": "VEC3"
    },
    {
      "bufferView": 3,
      "byteOffset": 548080,
      "componentType": 5126,
      "count": 37452,
      "max": [
        0.87058824300765991,
        0.90196079015731812,
        0.90980392694473267,
        1
      ],
      "min": [
        0.14117647707462311,
        0.13725490868091583,
        0.078431375324726105,
        1
      ],
      "type": "VEC4"
    },
    {
      "bufferView": 1,
      "byteOffset": 274040,
      "componentType": 5126,
      "count": 37452,
      "max": [
        0.99436497688293457,
        1
      ],
      "min": [
        0,
        0
      ],
      "type": "VEC2"
    },
    {
      "bufferView": 0,
      "byteOffset": 774348,
      "componentType": 5125,
      "count": 212385,
      "max": [
        37451
      ],
      "min": [
        0
      ],
      "type": "SCALAR"
    },
    {
      "bufferView": 2,
      "byteOffset": 1720968,
      "componentType": 5126,
      "count": 32246,
      "max": [
        1.260422945022583,
        5.8786120414733887,
        0.53272199630737305
      ],
      "min": [
        0.84491902589797974,
        5.4627938270568848,
        -0.61266201734542847
      ],
      "type": "VEC3"
    },
    {
      "bufferView": 2,
      "byteOffset": 2107920,
      "componentType": 5126,
      "count": 32246,
      "max": [
        0.99999219179153442,
        0.99999535083770752,
        0.9962228536605835
      ],
      "min": [
        -0.99995279312133789,
        -0.99999266862869263,
        -0.99950426816940308
      ],
      "type": "VEC3"
    },
    {
      "bufferView": 3,
      "byteOffset": 1147312,
      "componentType": 5126,
      "count": 32246,
      "max": [
        0.86274510622024536,
        0.89019608497619629,
        0.90588235855102539,
        1
      ],
      "min": [
        0.15294118225574493,
        0.14509804546833038,
        0.10196078568696976,
        1
      ],
      "type": "VEC4"
    },
    {
      "bufferView": 1,
      "byteOffset": 573656,
      "componentType": 5126,
      "count": 32246,
      "max": [
        0.9999309778213501,
        1
      ],
      "min": [
        0,
        0
      ],
      "type": "VEC2"
    },
    {
      "bufferView": 0,
      "byteOffset": 1623888,
      "componentType": 5125,
      "count": 182496,
      "max": [
        32245
      ],
      "min": [
        0
      ],
      "type": "SCALAR"
    }
  ],
  "asset": {
    "extras": {
      "author": "Limerick3D (https://sketchfab.com/Limerick3D)",
      "license": "CC0-1.0 (http://creativecommons.org/publicdomain/zero/1.0/)",
      "source": "https://sketchfab.com/3d-models/mg-031-madonna-staff-mount-82b8dda078e34cbd9090bbc96088257b",
      "title": "MG 031 Madonna Staff-mount"
    },
    "generator": "Sketchfab-7.80.0",
    "version": "2.0"
  },
  "bufferViews": [
    {
      "buffer": 0,
      "byteLength": 2353872,
      "byteOffset": 0,
      "name": "floatBufferViews",
      "target": 34963
    },
    {
      "buffer": 0,
      "byteLength": 831624,
      "byteOffset": 2353872,
      "byteStride": 8,
      "name": "floatBufferViews",
      "target": 34962
    },
    {
      "buffer": 0,
      "byteLength": 2494872,
      "byteOffset": 3185496,
      "byteStride": 12,
      "name": "floatBufferViews",
      "target": 34962
    },
    {
      "buffer": 0,
      "byteLength": 1663248,
      "byteOffset": 5680368,
      "byteStride": 16,
      "name": "floatBufferViews",
      "target": 34962
    }
  ],
  "buffers": [
    {
      "byteLength": 7343616,
      "uri": "scene.bin"
    }
  ],
  "materials": [
    {
      "doubleSided": true,
      "name": "MG_031_Madonna_Staff-mount",
      "pbrMetallicRoughness": {
        "baseColorFactor": [
          1,
          1,
          1,
          1
        ],
        "metallicFactor": 0,
        "roughnessFactor": 0.59999999999999998
      }
    },
    {
      "doubleSided": true,
      "name": "MG_031_Madonna_Staff-mount1",
      "pbrMetallicRoughness": {
        "baseColorFactor": [
          1,
          1,
          1,
          1
        ],
        "metallicFactor": 0,
        "roughnessFactor": 0.59999999999999998
      }
    },
    {
      "doubleSided": true,
      "name": "MG_031_Madonna_Staff-mount2",
      "pbrMetallicRoughness": {
        "baseColorFactor": [
          1,
          1,
          1,
          1
        ],
        "metallicFactor": 0,
        "roughnessFactor": 0.59999999999999998
      }
    }
  ],
  "meshes": [
    {
      "primitives": [
        {
          "attributes": {
            "COLOR_0": 2,
            "NORMAL": 1,
            "POSITION": 0,
            "TEXCOORD_0": 3
          },
          "indices": 4,
          "material": 0,
          "mode": 4
        }
      ]
    },
    {
      "primitives": [
        {
          "attributes": {
            "COLOR_0": 7,
            "NORMAL": 6,
            "POSITION": 5,
            "TEXCOORD_0": 8
          },
          "indices": 9,
          "material": 1,
          "mode": 4
        }
      ]
    },
    {
      "primitives": [
        {
          "attributes": {
            "COLOR_0": 12,
            "NORMAL": 11,
            "POSITION": 10,
            "TEXCOORD_0": 13
          },
          "indices": 14,
          "material": 2,
          "mode": 4
        }
      ]
    }
  ],
  "nodes": [
    {
      "children": [
        1
      ],
      "name": "RootNode (gltf orientation matrix)",
      "rotation": [
        -0.70710678118654746,
        -0,
        -0,
        0.70710678118654757
      ]
    },
    {
      "children": [
        2
      ],
      "name": "RootNode (model correction matrix)"
    },
    {
      "children": [
        3,
        4,
        5
      ],
      "name": "MG 031 Madonna Staff-mount.obj.cleaner.materialmerger.gles"
    },
    {
      "mesh": 0,
      "name": ""
    },
    {
      "mesh": 1,
      "name": ""
    },
    {
      "mesh": 2,
      "name": ""
    }
  ],
  "scene": 0,
  "scenes": [
    {
      "name": "OSG_Scene",
      "nodes": [
        0
      ]
    }
  ]
}

