{
  "accessors": [
    {
      "bufferView": 2,
      "componentType": 5126,
      "count": 65532,
      "max": [
        0.9491918683052063,
        15.201054573059082,
        3.6352558135986328
      ],
      "min": [
        -2.0982115268707275,
        7.3770179748535156,
        -1.9951430559158325
      ],
      "type": "VEC3"
    },
    {
      "bufferView": 2,
      "byteOffset": 786384,
      "componentType": 5126,
      "count": 65532,
      "max": [
        0.99976468086242676,
        0.98044949769973755,
        0.99999350309371948
      ],
      "min": [
        -0.99993079900741577,
        -0.99998199939727783,
        -0.99943935871124268
      ],
      "type": "VEC3"
    },
    {
      "bufferView": 1,
      "componentType": 5126,
      "count": 65532,
      "max": [
        0.99545907974243164,
        0.99752765893936157
      ],
      "min": [
        0.0033380980603396893,
        0.0036110761575400829
      ],
      "type": "VEC2"
    },
    {
      "bufferView": 0,
      "componentType": 5125,
      "count": 345072,
      "max": [
        65531
      ],
      "min": [
        0
      ],
      "type": "SCALAR"
    },
    {
      "bufferView": 2,
      "byteOffset": 1572768,
      "componentType": 5126,
      "count": 40131,
      "max": [
        1.0830388069152832,
        15.316424369812012,
        3.6097702980041504
      ],
      "min": [
        -2.0977885723114014,
        7.3800630569458008,
        -1.9991286993026733
      ],
      "type": "VEC3"
    },
    {
      "bufferView": 2,
      "byteOffset": 2054340,
      "componentType": 5126,
      "count": 40131,
      "max": [
        0.99998366832733154,
        0.99995172023773193,
        0.9980577826499939
      ],
      "min": [
        -0.99993079900741577,
        -0.99962234497070312,
        -0.99994635581970215
      ],
      "type": "VEC3"
    },
    {
      "bufferView": 1,
      "byteOffset": 524256,
      "componentType": 5126,
      "count": 40131,
      "max": [
        0.99392002820968628,
        0.99564933776855469
      ],
      "min": [
        0.0058976951986551285,
        0.0037728662136942148
      ],
      "type": "VEC2"
    },
    {
      "bufferView": 0,
      "byteOffset": 1380288,
      "componentType": 5125,
      "count": 194928,
      "max": [
        40130
      ],
      "min": [
        0
      ],
      "type": "SCALAR"
    }
  ],
  "asset": {
    "extras": {
      "author": "Museo Nacional de Historia Natural de Chile (https://sketchfab.com/MNHNcl)",
      "license": "CC0-1.0 (http://creativecommons.org/publicdomain/zero/1.0/)",
      "source": "https://sketchfab.com/3d-models/moai-tangata-010c4866d8ad40ee975e6f123320b69c",
      "title": "Moai Tangata"
    },
    "generator": "Sketchfab-7.80.0",
    "version": "2.0"
  },
  "bufferViews": [
    {
      "buffer": 0,
      "byteLength": 2160000,
      "byteOffset": 0,
      "name": "floatBufferViews",
      "target": 34963
    },
    {
      "buffer": 0,
      "byteLength": 845304,
      "byteOffset": 2160000,
      "byteStride": 8,
      "name": "floatBufferViews",
      "target": 34962
    },
    {
      "buffer": 0,
      "byteLength": 2535912,
      "byteOffset": 3005304,
      "byteStride": 12,
      "name": "floatBufferViews",
      "target": 34962
    }
  ],
  "buffers": [
    {
      "byteLength": 5541216,
      "uri": "scene.bin"
    }
  ],
  "images": [
    {
      "uri": "textures/059AR.1001_baseColor.jpeg"
    }
  ],
  "materials": [
    {
      "doubleSided": true,
      "emissiveFactor": [
        0,
        0,
        0
      ],
      "name": "059AR.1001",
      "pbrMetallicRoughness": {
        "baseColorFactor": [
          1,
          1,
          1,
          1
        ],
        "baseColorTexture": {
          "index": 0,
          "texCoord": 0
        },
        "metallicFactor": 0,
        "roughnessFactor": 1
      }
    }
  ],
  "meshes": [
    {
      "primitives": [
        {
          "attributes": {
            "NORMAL": 1,
            "POSITION": 0,
            "TEXCOORD_0": 2
          },
          "indices": 3,
          "material": 0,
          "mode": 4
        }
      ]
    },
    {
      "primitives": [
        {
          "attributes": {
            "NORMAL": 5,
            "POSITION": 4,
            "TEXCOORD_0": 6
          },
          "indices": 7,
          "material": 0,
          "mode": 4
        }
      ]
    }
  ],
  "nodes": [
    {
      "children": [
        1
      ],
      "name": "RootNode (gltf orientation matrix)",
      "rotation": [
        -0.70710678118654746,
        -0,
        -0,
        0.70710678118654757
      ]
    },
    {
      "children": [
        2
      ],
      "matrix": [
        -0.20657446980476379,
        0.94804716110229492,
        -0.24193710088729858,
        0,
        -0.6698346734046936,
        0.043210495263338089,
        0.74125188589096069,
        0,
        0.71319597959518433,
        0.31518158316612244,
        0.62610870599746704,
        0,
        6.4045524597167969,
        11.079804420471191,
        -8.2277193069458008,
        1
      ],
      "name": "RootNode (model correction matrix)"
    },
    {
      "children": [
        3,
        4
      ],
      "name": "059AR.obj.cleaner.materialmerger.gles"
    },
    {
      "mesh": 0,
      "name": ""
    },
    {
      "mesh": 1,
      "name": ""
    }
  ],
  "samplers": [
    {
      "magFilter": 9729,
      "minFilter": 9987,
      "wrapS": 10497,
      "wrapT": 10497
    }
  ],
  "scene": 0,
  "scenes": [
    {
      "name": "OSG_Scene",
      "nodes": [
        0
      ]
    }
  ],
  "textures": [
    {
      "sampler": 0,
      "source": 0
    }
  ]
}

